<svg xmlns="http://www.w3.org/2000/svg" version="1.1" xmlns:xlink="http://www.w3.org/1999/xlink" xmlns:svgjs="http://svgjs.com/svgjs" width="512" height="512" x="0" y="0" viewBox="0 0 66 66" style="enable-background:new 0 0 512 512" xml:space="preserve" class=""><g><g><g><path d="m64 52.4h-8.8v-43.7c0-3.2-2.6-5.9-5.9-5.9h-38.4c-3.2 0-5.9 2.6-5.9 5.9v3.9c0 .6.4 1 1 1h8.8v6.1h-11.8c-1.1 0-2 .9-2 2v31.2c0 1.1.9 2 2 2h11.8v2.5c0 3.2 2.6 5.9 5.9 5.9h38.4c3.2 0 5.9-2.6 5.9-5.9v-3.9c0-.7-.4-1.1-1-1.1zm-49.2-40.8h-7.8v-2.9c0-2.1 1.7-3.9 3.9-3.9 2.1 0 3.9 1.7 3.9 3.9zm-11.8 10.1h25.6v31.2c-15.5 0-20.7 0-25.6 0zm25.6 31.2c-.1 0-.1 0 0 0zm-11.8 4.4v-2.5h11.8c1.1 0 2-.9 2-2v-31.1c0-1.1-.9-2-2-2h-11.8v-11c0-1.5-.6-2.8-1.5-3.8h34c2.1 0 3.9 1.7 3.9 3.9v48.7c0 1.5.6 2.9 1.5 3.9h-34c-2.1-.2-3.9-1.9-3.9-4.1zm46.2 0c0 2.1-1.7 3.9-3.9 3.9-2.1 0-3.9-1.7-3.9-3.9v-2.9h7.8z" fill="#ededed" data-original="#000000" class=""></path></g><g><path d="m26.1 30.9v-6.2c0-.6-.4-1-1-1h-18.6c-.6 0-1 .4-1 1v6.2c0 .6.4 1 1 1h18.6c.6 0 1-.5 1-1zm-2-1h-16.6v-4.2h16.6z" fill="#ededed" data-original="#000000" class=""></path></g><g><path d="m8.9 35.4h-1c-.6 0-1 .4-1 1s.4 1 1 1h1c.6 0 1-.4 1-1s-.5-1-1-1z" fill="#ededed" data-original="#000000" class=""></path></g><g><path d="m16.3 35.4h-1c-.6 0-1 .4-1 1s.4 1 1 1h1c.6 0 1-.4 1-1s-.4-1-1-1z" fill="#ededed" data-original="#000000" class=""></path></g><g><path d="m23.8 35.4h-1c-.6 0-1 .4-1 1s.4 1 1 1h1c.6 0 1-.4 1-1s-.5-1-1-1z" fill="#ededed" data-original="#000000" class=""></path></g><g><path d="m8.9 41.4h-1c-.6 0-1 .4-1 1s.4 1 1 1h1c.6 0 1-.4 1-1s-.5-1-1-1z" fill="#ededed" data-original="#000000" class=""></path></g><g><path d="m16.3 41.4h-1c-.6 0-1 .4-1 1s.4 1 1 1h1c.6 0 1-.4 1-1s-.4-1-1-1z" fill="#ededed" data-original="#000000" class=""></path></g><g><path d="m23.8 41.4h-1c-.6 0-1 .4-1 1s.4 1 1 1h1c.6 0 1-.4 1-1s-.5-1-1-1z" fill="#ededed" data-original="#000000" class=""></path></g><g><path d="m8.9 47.4h-1c-.6 0-1 .4-1 1s.4 1 1 1h1c.6 0 1-.4 1-1s-.5-1-1-1z" fill="#ededed" data-original="#000000" class=""></path></g><g><path d="m16.3 49.4c.6 0 1-.4 1-1s-.4-1-1-1h-1c-.6 0-1 .4-1 1s.4 1 1 1z" fill="#ededed" data-original="#000000" class=""></path></g><g><path d="m23.8 47.4h-1c-.6 0-1 .4-1 1s.4 1 1 1h1c.6 0 1-.4 1-1s-.5-1-1-1z" fill="#ededed" data-original="#000000" class=""></path></g><g><path d="m25.9 11.4h-2c-.6 0-1 .4-1 1s.4 1 1 1h2c.6 0 1-.4 1-1s-.5-1-1-1z" fill="#ededed" data-original="#000000" class=""></path></g><g><path d="m37 12.4c0-.6-.4-1-1-1h-2c-.6 0-1 .4-1 1s.4 1 1 1h2c.6 0 1-.5 1-1z" fill="#ededed" data-original="#000000" class=""></path></g><g><path d="m44.2 13.4h2c.6 0 1-.4 1-1s-.4-1-1-1h-2c-.6 0-1 .4-1 1 0 .5.4 1 1 1z" fill="#ededed" data-original="#000000" class=""></path></g><g><path d="m48.2 21.7h-12.6c-.6 0-1 .4-1 1s.4 1 1 1h12.6c.6 0 1-.4 1-1s-.4-1-1-1z" fill="#ededed" data-original="#000000" class=""></path></g><g><path d="m48.2 32h-12.6c-.6 0-1 .4-1 1s.4 1 1 1h12.6c.6 0 1-.4 1-1s-.4-1-1-1z" fill="#ededed" data-original="#000000" class=""></path></g><g><path d="m48.2 42.3h-12.6c-.6 0-1 .4-1 1s.4 1 1 1h12.6c.6 0 1-.4 1-1 0-.5-.4-1-1-1z" fill="#ededed" data-original="#000000" class=""></path></g><g><path d="m48.2 52.6h-12.6c-.6 0-1 .4-1 1s.4 1 1 1h12.6c.6 0 1-.4 1-1 0-.5-.4-1-1-1z" fill="#ededed" data-original="#000000" class=""></path></g></g></g></svg>