<svg xmlns="http://www.w3.org/2000/svg" version="1.1" xmlns:xlink="http://www.w3.org/1999/xlink" xmlns:svgjs="http://svgjs.com/svgjs" width="24" height="24" x="0" y="0" viewBox="0 0 24 24" style="enable-background:new 0 0 24 24" xml:space="preserve" class=""><g><g id="Layer_114" data-name="Layer 114"><path d="m21 12a9 9 0 1 1 -3.84-7.36l-.11-.32a1 1 0 0 1 1.95-.64l1 3a1 1 0 0 1 -.14.9 1 1 0 0 1 -.86.42h-3a1 1 0 0 1 -1-1 1 1 0 0 1 .71-.94 7 7 0 1 0 3.29 5.94 1 1 0 0 1 2 0z" fill="#ededed" data-original="#000000"></path></g></g></svg>